<?xml version="1.0" encoding="utf-8"?>
<!-- Generator: Adobe Illustrator 17.1.0, SVG Export Plug-In . SVG Version: 6.00 Build 0)  -->
<!DOCTYPE svg PUBLIC "-//W3C//DTD SVG 1.1//EN" "http://www.w3.org/Graphics/SVG/1.1/DTD/svg11.dtd">
<svg version="1.1" id="Layer_1" xmlns="http://www.w3.org/2000/svg" xmlns:xlink="http://www.w3.org/1999/xlink" x="0px" y="0px"
	 viewBox="0 0 720 720" enable-background="new 0 0 720 720" xml:space="preserve">
<g id="Layer_1_1_">
</g>
<path fill-rule="evenodd" clip-rule="evenodd" fill="#FFFFFF" d="M552.4,263.6c15.6,59.4-33.7,181-33.7,181
	C567.2,50.9,233.3,0,233.3,0c146.5,272.7,5.6,405.4,19.6,297.2c14-108.2-55-139-55-139C237,256.2,83,347.6,83,565.1
	c0,75,60.5,135.9,135.3,136.7l0,0c0.3,0,0.5,0,0.8,0c0.2,0,0.4,0,0.6,0c1.8,0,3.6-0.1,5.4-0.1c177.9-5.7,201.7-242.8,201.7-242.8
	c46.1,83.7-8.8,191.9-8.8,191.9c69,4.2,84-74,84-74c17.7,70-28,141.4-28,141.4C699.6,563.7,552.4,263.6,552.4,263.6z"/>
</svg>
