<?xml version="1.0" encoding="iso-8859-1"?>
<!-- Generator: Adobe Illustrator 17.1.0, SVG Export Plug-In . SVG Version: 6.00 Build 0)  -->
<!DOCTYPE svg PUBLIC "-//W3C//DTD SVG 1.1//EN" "http://www.w3.org/Graphics/SVG/1.1/DTD/svg11.dtd">
<svg version="1.1" xmlns="http://www.w3.org/2000/svg" xmlns:xlink="http://www.w3.org/1999/xlink" x="0px" y="0px"
	 viewBox="0 0 32.573 38" style="enable-background:new 0 0 32.573 38;" xml:space="preserve">
<g id="music">
	<g>
		<g>
			<g>
				<path style="fill-rule:evenodd;clip-rule:evenodd;fill:#FFFFFF;" d="M32.573,0l-0.024,0.002V0c0,0-6.314,0.17-12.384,1.288
					C14.484,2.336,9.006,4.339,9.006,4.339v1.41L8.982,5.76v22.832c-1.11-0.459-2.434-0.608-3.793-0.341
					c-3.186,0.613-5.63,3.421-5.121,6.036c0.504,2.616,3.753,4.196,6.934,3.58c2.893-0.564,4.946-2.895,4.916-5.286h0.01V13.12
					c2.251-0.593,5.523-1.398,8.803-2.003c3.285-0.606,6.614-0.939,8.898-1.114v13.35c-1.097-0.452-2.402-0.596-3.745-0.33
					c-3.165,0.611-5.577,3.412-5.081,6.033c0.506,2.617,3.724,4.195,6.881,3.58c2.84-0.565,4.855-2.843,4.878-5.197h0.013V0z"/>
			</g>
		</g>
	</g>
</g>
<g id="Layer_1">
</g>
</svg>
