<?xml version="1.0" encoding="iso-8859-1"?>
<!-- Generator: Adobe Illustrator 17.1.0, SVG Export Plug-In . SVG Version: 6.00 Build 0)  -->
<!DOCTYPE svg PUBLIC "-//W3C//DTD SVG 1.1//EN" "http://www.w3.org/Graphics/SVG/1.1/DTD/svg11.dtd">
<svg version="1.1" xmlns="http://www.w3.org/2000/svg" xmlns:xlink="http://www.w3.org/1999/xlink" x="0px" y="0px"
	 viewBox="0 0 38 34.545" style="enable-background:new 0 0 38 34.545;" xml:space="preserve">
<g id="profiles">
	<g>
		<path style="fill:#FFFFFF;" d="M26.545,14.806c4.028,0,7.299-3.316,7.299-7.403S30.573,0,26.545,0
			c-4.031,0-7.296,3.316-7.296,7.403S22.513,14.806,26.545,14.806z"/>
		<path style="fill:#FFFFFF;" d="M27.471,17.411c-0.076-0.01-0.152-0.017-0.238-0.021c-0.059-0.007-0.114-0.01-0.18-0.014
			c-0.162-0.007-0.335-0.007-0.494-0.007c-0.007,0-0.007,0-0.007,0c-0.007,0-0.014,0-0.014,0c-0.166,0-0.332,0.003-0.497,0.01
			c-0.066,0-0.128,0.003-0.187,0.01c-0.073,0.003-0.152,0.01-0.231,0.021c-5.893,0.518-10.529,5.866-10.529,11.97v4.104l0,0
			c0,0.584,0.466,1.061,1.043,1.061h0.366h20.081h0.37c0.573,0,1.047-0.477,1.047-1.061l0,0v-4.104
			C38,23.277,33.364,17.926,27.471,17.411z"/>
		<path style="fill:#FFFFFF;" d="M10.312,17.083c3.624,0,6.567-2.981,6.567-6.66s-2.943-6.664-6.567-6.664
			c-3.627,0-6.567,2.981-6.567,6.664C3.741,14.098,6.685,17.083,10.312,17.083z"/>
		<path style="fill:#FFFFFF;" d="M12.326,33.485v-4.104c0-3.32,1.123-6.387,2.954-8.875c-1.251-0.743-2.639-1.247-4.139-1.382
			c-0.066-0.007-0.135-0.014-0.207-0.024c-0.052,0-0.111-0.003-0.166-0.007c-0.149-0.003-0.301-0.014-0.449-0.014h-0.007h-0.01
			c-0.145,0-0.297,0.007-0.449,0.014C9.801,19.097,9.745,19.1,9.69,19.1c-0.073,0.01-0.142,0.017-0.211,0.024
			C4.177,19.587,0,24.403,0,29.896v3.693l0,0c0,0.532,0.418,0.957,0.943,0.957h0.328h11.217
			C12.398,34.203,12.326,33.855,12.326,33.485z"/>
	</g>
</g>
<g id="Layer_1">
</g>
</svg>
