<?xml version="1.0" encoding="iso-8859-1"?>
<!-- Generator: Adobe Illustrator 17.1.0, SVG Export Plug-In . SVG Version: 6.00 Build 0)  -->
<!DOCTYPE svg PUBLIC "-//W3C//DTD SVG 1.1//EN" "http://www.w3.org/Graphics/SVG/1.1/DTD/svg11.dtd">
<svg version="1.1" id="Layer_1" xmlns="http://www.w3.org/2000/svg" xmlns:xlink="http://www.w3.org/1999/xlink" x="0px" y="0px"
	 viewBox="0 0 32.573 38" style="enable-background:new 0 0 32.573 38;" xml:space="preserve">
<g id="Layer_1_1_">
</g>
<path style="fill:#AAAAAA;" d="M31.714,30.254l-7.605-7.586c3.153-5.03,2.564-11.724-1.821-16.1c-5.098-5.087-13.365-5.087-18.463,0
	c-5.101,5.087-5.101,13.333,0,18.42c4.382,4.371,11.1,4.96,16.138,1.816l7.605,7.586c1.145,1.143,3.001,1.143,4.145,0
	C32.859,33.248,32.859,31.397,31.714,30.254z M20.601,16.342c-0.007,0.096-0.013,0.192-0.024,0.287
	c-0.011,0.093-0.028,0.185-0.042,0.278c-0.498,3.279-3.094,5.862-6.381,6.338c-0.077,0.012-0.153,0.026-0.231,0.035
	c-0.092,0.01-0.186,0.016-0.279,0.023c-0.179,0.015-0.357,0.025-0.537,0.027c-0.015,0-0.03,0.002-0.045,0.002
	c-0.02,0-0.038-0.003-0.058-0.003c-1.925-0.002-3.847-0.724-5.321-2.191c-2.968-2.962-2.968-7.76,0-10.72
	c0.901-0.9,1.974-1.523,3.112-1.876c0.006-0.002,0.012-0.005,0.019-0.006c0.202-0.062,0.406-0.112,0.612-0.157
	c0.043-0.009,0.084-0.022,0.127-0.031c0.198-0.04,0.398-0.067,0.598-0.091c0.05-0.006,0.099-0.017,0.15-0.022
	c0.252-0.025,0.506-0.039,0.759-0.038c0.001,0,0.001,0,0.002,0c0.021,0,0.042,0.003,0.063,0.003
	c0.226,0.002,0.453,0.012,0.678,0.034c0.129,0.013,0.254,0.036,0.381,0.055c0.118,0.018,0.235,0.031,0.352,0.054
	c0.132,0.026,0.26,0.062,0.389,0.095c0.112,0.028,0.224,0.053,0.335,0.086c0.112,0.034,0.22,0.076,0.33,0.115
	c0.127,0.045,0.254,0.087,0.378,0.138c0.082,0.034,0.159,0.074,0.24,0.111c0.149,0.068,0.298,0.135,0.443,0.213
	c0.042,0.023,0.081,0.049,0.122,0.072c0.591,0.332,1.15,0.742,1.653,1.244c1.276,1.273,1.989,2.884,2.159,4.541
	c0.003,0.024,0.004,0.047,0.007,0.071c0.02,0.213,0.031,0.427,0.032,0.641c0,0.031,0.005,0.062,0.005,0.094
	c0,0.025-0.003,0.049-0.004,0.073C20.624,16.006,20.615,16.174,20.601,16.342z"/>
</svg>
