<?xml version="1.0" encoding="utf-8"?>
<!-- Generator: Adobe Illustrator 17.1.0, SVG Export Plug-In . SVG Version: 6.00 Build 0)  -->
<!DOCTYPE svg PUBLIC "-//W3C//DTD SVG 1.1//EN" "http://www.w3.org/Graphics/SVG/1.1/DTD/svg11.dtd">
<svg version="1.1" id="Layer_1" xmlns="http://www.w3.org/2000/svg" xmlns:xlink="http://www.w3.org/1999/xlink" x="0px" y="0px"
	 viewBox="0 0 720 720" enable-background="new 0 0 720 720" xml:space="preserve">
<g id="Layer_1_1_">
</g>
<g>
	<path fill="#AAAAAA" d="M600.5,138.3c37.5,0,67.9,34.3,67.9,76.5v290.4c0,42.2-30.5,76.5-67.9,76.5H119c-37.5,0-68-34.3-68-76.5
		V214.8c0-42.2,30.5-76.5,68-76.5H600.5 M600.5,82.9H119C53.2,82.9-0.4,142.3-0.4,214.8v290.4c0,72.6,53.6,131.9,119.4,131.9h481.6
		c65.9,0,119.4-59.2,119.4-131.9V214.8C719.9,142.3,666.5,82.9,600.5,82.9L600.5,82.9z"/>
	<path fill="#AAAAAA" d="M298,238.4c0-10.8,6.5-14.5,14.5-8.3l151.2,118.7c8,6.3,8,16.5,0,22.7L312.5,490.1
		c-8,6.3-14.5,2.5-14.5-8.3V238.4L298,238.4z"/>
</g>
</svg>
